# xmcd
#
# Track frame offsets:
#	150
#	12403
#	23195
#	36548
#	54475
#	66948
#	80778
#	95568
#	106478
#	119728
#	133358
#	148430
#	165008
#	178123
#
# Disc length: 2544
#
# Revision: 3
# Processed by: cddbd v1.5.1PL0 Copyright (c) Steve Scherf et al.
# Submitted via: ExactAudioCopy v0.95a5
# Normalized: r2:DSETVAR1,TDELIM( - )
#
DISCID=d509ee0e
DTITLE=Various Artist - Black, White and Blues
DYEAR=1991
DGENRE=Blues
TTITLE0=Howlin' Wolf - How many more tears
TTITLE1=Eric Clapton - West Coast Idea
TTITLE2=Lowell Fulson - Pay Day Blues
TTITLE3=John Mayall - Telephone Blues
TTITLE4=John Lee Hooker - High Priced Woman
TTITLE5=Savoy Brown Blues Band - I Tried
TTITLE6=Muddy Waters - Still A Fool
TTITLE7=Jeff Beck and The All Stars - Chuckles
TTITLE8=Little Walter - Mean Old World
TTITLE9=Nicky Hopkins and The All Stars - Piano Shuffle
TTITLE10=Mephis Slim - I'm Crying
TTITLE11=Rod Steward - Little Misunderstood
TTITLE12=Little Milton - Baby I Love You
TTITLE13=Eric Clapton and Jimmy Page - Freight Loader
EXTD=
EXTT0=
EXTT1=
EXTT2=
EXTT3=
EXTT4=
EXTT5=
EXTT6=
EXTT7=
EXTT8=
EXTT9=
EXTT10=
EXTT11=
EXTT12=
EXTT13=
PLAYORDER=
